<?xml version="1.0" encoding="utf-8"?>
<!-- Generator: Adobe Illustrator 21.1.0, SVG Export Plug-In . SVG Version: 6.00 Build 0)  -->
<svg version="1.1" id="Layer_1" xmlns="http://www.w3.org/2000/svg" xmlns:xlink="http://www.w3.org/1999/xlink" x="0px" y="0px"
	 viewBox="0 0 176.9 50" style="enable-background:new 0 0 176.9 50;" xml:space="preserve">
<style type="text/css">
	.st0{fill:#ED307C;}
	.st1{fill:#FFFFFF;}
</style>
<g>
	<g>
		<g>
			<g>
				<g>
					<polygon class="st0" points="20.9,1 20.8,1 20.9,1 					"/>
					<polygon class="st0" points="20.9,49 20.9,49 20.8,49 					"/>
					<path class="st0" d="M20.9,1L20.9,1h-5.7c-1.1,0-2,0.6-2.5,1.4c-0.2,0.4-0.4,0.9-0.4,1.4c0,1.6,1.3,2.8,2.8,2.8h21.2
						C32.1,3.1,26.7,1,20.9,1z"/>
					<path class="st0" d="M6.6,12.3c0,1.6,1.3,2.8,2.8,2.8h33.3c-0.9-2.1-2.1-4-3.6-5.6H9.5C7.9,9.5,6.6,10.7,6.6,12.3z"/>
					<path class="st0" d="M1,20.8c0,1.6,1.3,2.8,2.8,2.8h41c-0.1-2-0.5-3.8-1-5.6h-40C2.3,17.9,1,19.2,1,20.8z"/>
					<path class="st0" d="M6.6,29.2c0,1.6,1.3,2.8,2.8,2.8h34.3c0.6-1.8,0.9-3.7,1-5.6H9.5C7.9,26.4,6.6,27.7,6.6,29.2z"/>
					<path class="st0" d="M2,39.9c-0.3-0.3-0.5-0.7-0.8-1.1C1.4,39.2,1.7,39.6,2,39.9z"/>
					<path class="st0" d="M39.1,40.5c1.4-1.7,2.7-3.6,3.6-5.6H3.8c-1.6,0-2.8,1.3-2.8,2.8c0,0.4,0.1,0.8,0.2,1.1
						c0.3,0.4,0.5,0.7,0.8,1.1c0.5,0.4,1.1,0.7,1.8,0.7H39.1z"/>
					<path class="st0" d="M15.1,43.4c-1.6,0-2.8,1.3-2.8,2.8c0,0.5,0.1,1,0.4,1.4c0.5,0.9,1.4,1.4,2.5,1.4h5.7h0
						c5.9,0,11.3-2.1,15.5-5.6H15.1z"/>
				</g>
			</g>
		</g>
	</g>
	<g>
		<path class="st1" d="M66,17.5c-2.9,0-5.2,1.1-7.1,3.4v-8.7c0-1.6-1.2-2.8-2.8-2.8c-1.6,0-2.8,1.2-2.8,2.8v25.5
			c0,1.5,1.3,2.8,2.8,2.8c1.6,0,2.8-1.3,2.8-2.8v-0.2c1.9,2.2,4.2,3.2,7.1,3.2c5.2,0,10.4-4,10.4-11.6v-0.1
			C76.4,21.5,71.2,17.5,66,17.5z M70.7,29.1L70.7,29.1c0,3.9-2.5,6.7-5.9,6.7c-3.4,0-6-2.9-6-6.6v-0.1c0-3.8,2.6-6.6,6-6.6
			C68.2,22.5,70.7,25.3,70.7,29.1z"/>
		<path class="st1" d="M80.4,9.4c-1.6,0-2.8,1.2-2.8,2.8v25.5c0,1.6,1.2,2.8,2.8,2.8c1.6,0,2.8-1.2,2.8-2.8V12.2
			C83.2,10.7,81.9,9.4,80.4,9.4z"/>
		<path class="st1" d="M102.9,17.7c-1.6,0-2.8,1.2-2.8,2.8v10c0,3.1-1.8,5-4.6,5c-2.8,0-4.3-1.8-4.3-4.9V20.5c0-1.6-1.2-2.8-2.8-2.8
			c-1.5,0-2.8,1.3-2.8,2.8v11.6c0,5.4,3.1,8.7,8.1,8.7c2.6,0,4.7-1,6.5-3.2v0.1c0,1.5,1.3,2.8,2.8,2.8c1.6,0,2.8-1.3,2.8-2.8V20.5
			C105.7,19,104.4,17.7,102.9,17.7z"/>
		<path class="st1" d="M118.8,17.6c-1.9,0-3.8,1.4-5.1,3.7v-0.8c0-1.6-1.2-2.8-2.8-2.8c-1.6,0-2.8,1.2-2.8,2.8v17.2
			c0,1.6,1.2,2.8,2.8,2.8c1.6,0,2.8-1.3,2.8-2.8v-6.4c0-4.6,2-7.5,5.7-8.2c1.4-0.3,2.2-1.3,2.2-2.7
			C121.6,18.7,120.5,17.6,118.8,17.6z"/>
		<path class="st1" d="M137.6,14.3c0.4,0,0.9,0.1,1,0.1c0.6,0,1.2-0.2,1.7-0.7c0.5-0.5,0.7-1.1,0.7-1.7c0-1.2-0.9-2.2-2-2.4
			c-0.8-0.1-1.6-0.2-2.6-0.2c-2.2,0-3.9,0.6-5.1,1.8c-1.2,1.2-1.9,3.1-1.9,5.6v1.3h-0.5c-1.3,0-2.4,1.1-2.4,2.4
			c0,1.3,1.1,2.4,2.4,2.4h0.5v14.9c0,1.5,1.3,2.8,2.8,2.8c1.6,0,2.8-1.3,2.8-2.8V22.9h3.5c1.3,0,2.4-1.1,2.4-2.4
			c0-1.3-1.1-2.4-2.4-2.4H135v-0.9C135,15.2,135.8,14.3,137.6,14.3z"/>
		<path class="st1" d="M167.9,17.5c-3,0-5.3,1.2-7.3,3.6c-1.3-2.3-3.7-3.6-6.6-3.6c-3.2,0-5.1,1.7-6.3,3.1v-0.1
			c0-1.6-1.2-2.8-2.8-2.8c-1.6,0-2.8,1.2-2.8,2.8v17.2c0,1.6,1.2,2.8,2.8,2.8c1.6,0,2.8-1.2,2.8-2.8v-10c0-3.1,1.7-5.1,4.3-5.1
			c2.6,0,4.1,1.8,4.1,4.9v10.1c0,1.6,1.2,2.8,2.8,2.8c1.6,0,2.8-1.2,2.8-2.8v-10c0-3.1,1.7-5.1,4.3-5.1c2.6,0,4.1,1.8,4.1,5v10.1
			c0,1.6,1.2,2.8,2.8,2.8c1.6,0,2.8-1.2,2.8-2.8V26.1C175.9,20.7,172.9,17.5,167.9,17.5z"/>
	</g>
</g>
</svg>
